/* XPM */
static char *ubiquity[] = {
/* columns rows colors chars-per-pixel */
"32 32 74 1 ",
"  c #BCBCBC",
". c #B9C1BE",
"X c #C3C4BC",
"o c #BBBBC1",
"O c #C4C4C4",
"+ c #CDC5C3",
"@ c #CBCAC3",
"# c #C8C7C8",
"$ c #CBCBCB",
"% c #D5CFCD",
"& c #CED1CF",
"* c #DBDDC6",
"= c #D4D2CE",
"- c #D4DDCF",
"; c #CACDD0",
": c #C6CDDD",
"> c #CCCEDE",
", c #D0CFD0",
"< c #D3CFDE",
"1 c #DCCEDD",
"2 c #C6D3D0",
"3 c #CED4D1",
"4 c #C8DFD5",
"5 c #C7D3DE",
"6 c #CBD5DC",
"7 c #CBDDDB",
"8 c #D4D4D4",
"9 c #DAD6D5",
"0 c #DCD8D7",
"q c #D1D3D9",
"w c #DBD3DA",
"e c #D4DCDC",
"r c #DCDCDC",
"t c #E5D4CB",
"y c #EBDBCE",
"u c #F2DDCE",
"i c #E4D7D3",
"p c #EDDBD3",
"a c #E0D3DE",
"s c #E3DEDD",
"d c #EADDDA",
"f c #F3DCD2",
"g c #F3DED8",
"h c #CFE3D7",
"j c #CCE4DC",
"k c #D2E6D7",
"l c #DCE4D3",
"z c #DFE8D3",
"x c #D3E4DD",
"c c #DFE5DB",
"v c #D4E9DA",
"b c #E3E4CC",
"n c #EBE4CD",
"m c #E6E8CF",
"M c #E8E8CE",
"N c #E5E6D4",
"B c #ECE5D2",
"V c #E4E8D2",
"C c #F1E0D7",
"Z c #DACFE0",
"A c #C7D1E0",
"S c #CBD2E2",
"D c #CBDCE1",
"F c #D4D3E3",
"G c #DDD2E2",
"H c #D4DAE4",
"J c #E2D3E2",
"K c #E2DDE1",
"L c #D4E8E0",
"P c #E3E3E3",
"I c #E8E7E8",
"U c #EBEBEB",
"Y c #F4F4F4",
"T c #FEFEFE",
/* pixels */
"TTTTTTTTTTTTTTTTTTTTTTTTTTTTTTTT",
"TTTTTTTTTTTTTTTYYYTTTTTTTTTTTTTT",
"TTTTTTTTTTYUr,,w8$8rUYTTTTTTTTTT",
"TTTTTTTTYPq8wKJIKPKr88PYTTTTTTTT",
"TTTTTTTU86FFJJJKKKKPIKw8UTTTTTTT",
"TTTTTTP3LHSSFJJKGPKPPPIK&PTTTTTT",
"TTTTTP3LLHSSFJJKNPKKPPPPP8PTTTTT",
"TTTTU8NvjDDSFZJKLKPPPPPPPP8UTTTT",
"TTTY8VVlvjjDSFJJPPPPPPPPPIP8YTTT",
"TTTP9BMmlvjDSFGJIPPPIPIIPPP8rTTT",
"TTY=dpBnVzvjDHG9rPUIPIPPPPPH$YTT",
"TTI%gfffBBVLx;8PK88PUPPPPPPN$UTT",
"TT9rsdgfuunN$UTYTTI8PIPPPKLr89TT",
"TT$KKKKdCCg=UTPrrPTI8PPPrKsrr$TT",
"TY$PsLKKPPsrTUrYYcPTrcPGrLrrr#YT",
"TY$PKKKPPPrPYPYTTYrTPrPsrsr9r$YT",
"TY$KKKPPPPrPTPYTTYPTPrNcrrer9OYT",
"TY#PPPPPPPPrTUPYYPITrrGrr99w9OYT",
"TT#PPPPPPPPrUTUPPUTU=fpir0988OTT",
"TT89PPPPPIPPrUTTTTY9lnuupiii$8TT",
"TTP$IPPPPPIPc9LUUH87kzMnuuyp+PTT",
"TTY$KPPIUPPPPGsw9wSDjklbnytt+YTT",
"TTTr=IIPPIPPPcrrJGFS7jhlbbb@rTTT",
"TTTY#rIIPKLPKrrrJGqS57jhlb*@YTTT",
"TTTTPOPPPPsLKsrrwJZ>554jh-XLTTTT",
"TTTYU8OrPKrrrwrrwaZ<A:7j4.8UYTTT",
"TTYYYP$ 9Lcrrr88wa1<::62 &IYYYTT",
"TTTYYYP8 #wrrr8rww1<>:o 3PUYYTTT",
"TTTTYYYUP$  $8999w1$o #PUYYYTTTT",
"TTTTTTTYYYUr$  o   #rUYYYTTTTTTT",
"TTTTTTTTTTTTTYYUUYYTTTTTTTTTTTTT",
"TTTTTTTTTTTTTTTTTTTTTTTTTTTTTTTT"
};
